<svg width="35" height="33" viewBox="0 0 35 33" fill="" xmlns="http://www.w3.org/2000/svg">
<path d="M34.5206 11.7056C34.7814 11.3968 34.6817 10.8254 34.2249 10.7161C31.7046 10.1141 28.6567 10.3972 26.072 10.4018C25.0965 10.4034 23.7526 10.3162 22.4908 10.4352C23.2921 10.0508 24.0543 9.58916 24.7438 9.04655C26.6206 7.56991 27.5118 3.9267 25.661 2.05935C22.8646 -0.761866 19.0195 3.03546 17.0301 6.50251C16.1781 3.22704 13.791 -0.217607 10.58 1.15636C8.33361 2.11721 8.12664 5.35209 8.94652 7.2176C9.62292 8.75706 11.3052 9.92824 13.0827 10.4927C9.00258 10.057 4.89594 9.99051 0.793008 9.8037C0.389658 9.78533 0.0509022 10.1514 0.0518303 10.5372C0.0562852 12.4791 -0.330917 14.9722 0.945588 16.6173C0.978999 16.6601 1.01835 16.695 1.06141 16.722C0.942989 16.7672 0.824007 16.8087 0.705396 16.8578C0.315039 17.0196 0.45481 17.5571 0.880992 17.4876C3.24244 17.1028 5.59424 17.1094 7.94455 17.2554C7.98167 17.2643 8.01657 17.2654 8.05072 17.2619C10.6156 17.4257 13.1786 17.7519 15.7511 17.9204C16.0587 17.9406 16.4272 17.6798 16.4797 17.3713C16.7674 15.6833 17.3762 13.3169 16.8626 11.6507C16.8482 11.6034 16.8233 11.5697 16.8023 11.5307C16.8751 11.5561 16.9527 11.5755 17.0405 11.5803C17.7633 11.6196 18.4879 11.5764 19.2033 11.467C19.0964 11.5983 19.0201 11.7412 18.9573 11.8893C18.8694 11.9499 18.8181 12.0538 18.8644 12.1571C18.7194 12.6898 18.7526 13.286 18.7333 13.8468C18.6945 14.9586 18.7172 16.0692 18.8603 17.1724C18.9328 17.7323 19.5855 17.8003 19.8008 17.3781C22.0969 17.2193 24.3748 17.0128 26.6795 16.9852C29.05 16.957 31.2288 17.5343 33.5459 17.7584C33.7597 17.7789 33.9056 17.695 33.9973 17.5684C34.1109 17.5199 34.2075 17.4329 34.2472 17.2935C34.5432 16.2523 34.8057 15.2206 34.9308 14.1444C35.0149 13.4172 35.135 12.2546 34.5206 11.7056ZM1.73169 16.4862C1.73948 16.4289 1.73763 16.367 1.71479 16.2962C1.34356 15.1443 1.35321 13.8734 1.42114 12.6214C1.68751 13.171 2.0322 13.6815 2.41217 14.1671C2.81329 14.6794 3.32281 15.4605 3.89582 15.9777C3.17154 16.092 2.45003 16.2547 1.73169 16.4862ZM4.83079 15.8585C4.46901 15.2294 3.66695 14.684 3.18527 14.167C2.50386 13.4353 1.88482 12.6295 1.48203 11.7129C1.48054 11.7093 1.47757 11.7078 1.4759 11.7045C1.48425 11.5713 1.49298 11.4381 1.5004 11.3066C1.55999 11.3096 1.61957 11.3119 1.67916 11.3151C2.42293 12.3927 3.35641 13.3341 4.3079 14.2322C4.8319 14.7265 5.37799 15.27 5.94859 15.7841C5.57549 15.7996 5.2024 15.8216 4.83079 15.8585ZM7.33479 15.7707C6.60976 15.1633 5.78673 14.624 5.08657 14.0443C4.08218 13.2129 3.15316 12.3202 2.30284 11.345C2.99687 11.3781 3.69145 11.4082 4.38586 11.4381C4.39866 11.4683 4.4111 11.4986 4.43523 11.527C5.38894 12.6556 6.43565 13.6872 7.54788 14.6624C7.94622 15.0117 8.4073 15.4506 8.89975 15.839C8.37612 15.8062 7.85415 15.7797 7.33479 15.7707ZM10.6288 15.9755C9.8052 15.1928 8.67107 14.606 7.80125 13.8742C6.91399 13.1277 6.07592 12.3178 5.27702 11.4769C5.93281 11.5055 6.58842 11.5371 7.24384 11.5698C7.24625 11.651 7.27818 11.7329 7.35948 11.7932C8.47821 12.6236 9.48538 13.5441 10.4786 14.5154C11.0075 15.0323 11.5545 15.6181 12.1511 16.1214C11.6421 16.0714 11.1337 16.0216 10.6288 15.9755ZM13.8356 16.2643C12.8674 15.3495 11.7085 14.5931 10.699 13.7129C9.85086 12.9737 8.99646 12.2449 8.06613 11.6124C9.05845 11.6666 10.0497 11.7342 11.0398 11.8152C11.483 12.7043 12.141 13.4791 12.839 14.184C13.4066 14.7577 14.1392 15.5079 14.9196 15.9674C14.707 16.2095 14.3824 16.2828 13.8356 16.2643ZM15.3487 14.11C15.3224 14.4384 15.2934 14.7052 15.2607 14.9454C14.7213 14.5518 14.1364 14.1954 13.6392 13.7748C12.967 13.2061 12.3335 12.5891 11.8207 11.8806C12.9793 11.987 14.1355 12.1189 15.288 12.293C15.3599 12.3038 15.4274 12.3035 15.4928 12.2978C15.3853 12.892 15.3962 13.5197 15.3487 14.11ZM11.4979 7.85535C9.83601 6.53649 9.62032 1.23222 12.6184 2.58139C14.8383 3.58027 16.202 7.34728 15.7682 9.56528C15.7704 9.56546 15.7727 9.56583 15.7749 9.5662C15.7666 9.61212 15.7584 9.65804 15.7521 9.70231C14.1457 9.4918 12.7781 8.87168 11.4979 7.85535ZM16.2189 11.2252C16.1582 11.0469 16.0131 10.904 15.7747 10.8443C15.8527 10.8382 15.9325 10.8356 16.0088 10.8261C16.115 10.8129 16.2 10.7759 16.2744 10.73C16.2707 10.9047 16.3191 11.0818 16.4164 11.2302C16.3518 11.2183 16.2852 11.2168 16.2189 11.2252ZM33.4826 12.0158C33.361 12.6694 33.5962 13.4715 33.5667 14.1442C33.5582 14.3411 33.5424 14.5382 33.5296 14.7353C33.1389 14.1418 32.4498 13.6315 31.9585 13.1466C31.5978 12.7906 31.2305 12.4399 30.8503 12.1042C31.7467 12.1371 32.6366 12.1306 33.4826 12.0158ZM17.271 10.0091C17.2736 9.99822 17.2784 9.98922 17.2806 9.97784C17.3007 9.8746 17.3174 9.76715 17.3308 9.65584C17.7239 7.16819 21.0482 2.36684 23.9488 2.75625C25.4995 2.96419 25.005 5.94062 24.6585 6.6974C24.1957 7.70859 23.1117 8.35571 22.1843 8.87003C20.7434 9.66961 18.9269 10.0588 17.271 10.0091ZM19.9467 16.3754C20.0078 15.6561 20.0351 14.9351 20.0764 14.2125C20.0902 13.9748 20.1234 13.7327 20.1574 13.4895C20.4926 13.8529 20.8215 14.2221 21.1478 14.5937C21.5195 15.0169 21.9096 15.5402 22.3514 15.9788C21.544 16.0971 20.74 16.2268 19.9467 16.3754ZM23.4677 15.8256C22.9465 15.2022 22.1936 14.6594 21.6462 14.1003C21.187 13.6311 20.7272 13.1662 20.247 12.7226C20.2663 12.4411 20.2623 12.163 20.2043 11.8939C20.4614 11.958 20.7315 12.0031 21.0099 12.0358C21.9497 12.8768 22.8416 13.768 23.7705 14.6205C24.0667 14.8921 24.4628 15.3295 24.8929 15.6781C24.4175 15.7202 23.9422 15.768 23.4677 15.8256ZM27.5259 15.5475C27.0995 15.5492 26.6713 15.5643 26.2429 15.5852C26.0697 15.3427 25.8052 15.1912 25.5533 15.0147C25.0494 14.6614 24.5762 14.2638 24.1029 13.8723C23.3851 13.2785 22.6703 12.6806 21.9447 12.0961C22.4191 12.1071 22.9083 12.0911 23.3988 12.065C23.3903 12.153 23.4163 12.2418 23.5032 12.3084C24.4702 13.0513 25.4052 13.8325 26.3534 14.5984C26.7253 14.8989 27.1207 15.2367 27.5367 15.5475C27.5333 15.5475 27.5296 15.5475 27.5259 15.5475ZM29.2084 15.556C28.4529 14.9968 27.5855 14.5433 26.8335 13.9827C25.9645 13.3347 25.1344 12.6396 24.2507 12.012C25.0646 11.9547 25.8568 11.8933 26.5746 11.8883C27.5721 12.7175 28.4922 13.6245 29.4278 14.5213C29.7882 14.8668 30.1585 15.259 30.5467 15.6355C30.1004 15.5918 29.6503 15.5666 29.2084 15.556ZM32.3578 15.9775C31.5522 15.1563 30.5068 14.4548 29.6629 13.7041C28.9559 13.075 28.2198 12.4793 27.4654 11.9069C28.1979 11.9385 28.9598 11.9987 29.7277 12.048C30.3013 12.5836 30.8481 13.1409 31.3744 13.7246C31.8842 14.2902 32.396 15.1234 33.0789 15.4849C33.2215 15.5604 33.3655 15.549 33.4787 15.4864C33.454 15.7939 33.4284 16.1012 33.4039 16.4087C33.0774 16.2296 32.7255 16.0903 32.3578 15.9775Z" fill="#D31900"/>
<path d="M16.0082 23.4345C16.0038 22.2974 15.921 21.1629 15.6981 20.0399C15.6342 19.7179 15.2912 19.5 14.9773 19.4967C11.1597 19.4578 6.95891 18.6663 3.36216 20.2933C2.97811 20.4669 3.05923 20.953 3.33357 21.1688C2.40808 24.6718 2.83351 28.3935 2.85059 31.9759C2.85263 32.4167 3.20457 32.72 3.62982 32.747C7.06805 32.9661 10.505 32.759 13.9456 32.7347C14.1609 32.7332 14.3269 32.6576 14.4485 32.544C14.7813 32.6779 15.2364 32.5411 15.3372 32.1443C15.7777 30.4091 15.7125 28.4232 15.8597 26.6393C15.9414 25.6498 16.001 24.657 16.0064 23.6656C16.0372 23.5945 16.042 23.513 16.0082 23.4345ZM14.4594 22.011C14.3575 21.9245 14.2545 21.8387 14.1574 21.7494C13.8623 21.4777 13.5848 21.1908 13.3093 20.9019C13.6546 20.9221 14.003 20.9469 14.3436 20.9592C14.3974 21.3086 14.4323 21.6596 14.4594 22.011ZM4.39346 31.243C4.37341 30.3407 4.33982 29.441 4.30603 28.5426C4.87793 29.3698 5.59108 30.1394 6.25077 30.84C6.40149 31 6.55388 31.1576 6.71463 31.3032C5.94078 31.2968 5.16731 31.2799 4.39346 31.243ZM10.5711 31.2619C10.5536 31.2408 10.5373 31.221 10.5287 31.2103C10.0207 30.5703 9.4269 30.0872 8.80712 29.5568C7.31734 28.2818 5.99536 26.8186 4.87403 25.2176C4.69602 24.9632 4.28413 25.1906 4.44933 25.4632C5.41548 27.0583 6.63259 28.4458 7.96459 29.752C8.48989 30.2671 9.01427 30.7415 9.48778 31.2777C9.02095 31.2849 8.55412 31.2948 8.08747 31.2981C8.08747 31.2406 8.08264 31.1827 8.06835 31.1253C8.00877 30.889 7.72607 30.8492 7.55846 30.9609C7.45915 30.8863 7.35966 30.8123 7.26351 30.734C6.82916 30.3797 6.43379 29.9765 6.04454 29.5751C5.43274 28.944 4.76229 28.2748 4.26835 27.5318C4.20561 25.7914 4.16552 24.053 4.2303 22.3065C6.87575 25.5778 11.0789 27.6407 13.2605 31.2265C12.364 31.2344 11.4674 31.2459 10.5711 31.2619ZM14.3649 26.6393C14.271 27.9045 13.9866 29.2983 13.9735 30.6293C13.2572 29.2068 11.5424 27.9897 10.4938 27.0842C8.39523 25.2721 5.9987 23.5809 4.27448 21.3809C4.28023 21.2873 4.28135 21.1938 4.28766 21.1001C4.49982 21.042 4.71365 20.991 4.9286 20.9454C6.02858 22.5275 7.73851 23.8478 9.13529 25.1244C10.1749 26.0747 11.4542 27.7078 12.8308 28.192C13.1027 28.2875 13.3102 27.9587 13.1851 27.7357C12.5375 26.579 10.9187 25.6707 9.93049 24.8267C8.43458 23.5492 6.94294 22.2501 5.58681 20.8253C6.08705 20.7469 6.59509 20.705 7.10554 20.6763C6.86572 21.1278 9.07886 23.04 9.30272 23.2584C10.1748 24.1096 11.0611 24.947 11.9641 25.7661C12.4495 26.2062 13.2312 27.1802 13.9458 27.2014C14.1424 27.2073 14.3514 26.9821 14.2671 26.784C14.0408 26.2528 13.3333 25.9033 12.8956 25.5497C12.1093 24.9143 11.3455 24.2512 10.5854 23.5855C9.54365 22.6734 8.28516 21.3167 7.19947 20.8159C7.2958 20.8604 7.36281 20.7401 7.28114 20.6778C7.27687 20.6738 7.2713 20.6719 7.26666 20.6682C8.15132 20.6265 9.04749 20.6462 9.94422 20.691C10.5866 21.6006 11.3191 22.4426 12.1061 23.2369C12.7265 23.8631 13.5614 24.7506 14.4592 25.2477C14.4327 25.7126 14.3991 26.177 14.3649 26.6393ZM14.5023 24.269C13.9285 23.8748 13.347 23.4884 12.8197 23.0224C12.0265 22.322 11.2744 21.5505 10.5956 20.7285C11.2495 20.7685 11.9019 20.8165 12.5498 20.8602C12.8685 21.2426 13.2063 21.6107 13.546 21.972C13.8497 22.295 14.1669 22.644 14.5062 22.9663C14.5162 23.4 14.516 23.8344 14.5023 24.269Z" fill="#D31900"/>
<path d="M32.0055 25.9534C31.8795 24.5934 31.8177 22.8291 31.0708 21.6359C31.1441 21.604 31.2139 21.5691 31.2762 21.5268C31.568 21.3294 31.7349 20.829 31.4006 20.5713C30.8172 20.1216 30.0148 20.1771 29.3066 20.0933C27.6472 19.8972 25.9883 19.7076 24.3218 19.582C23.8839 19.5487 23.3082 19.4864 22.686 19.4466C22.6665 19.4211 22.6455 19.3972 22.626 19.3716C22.5139 19.224 22.2952 19.2901 22.2561 19.4223C21.4843 19.3902 20.6685 19.4093 19.9583 19.5748C19.8701 19.5357 19.7662 19.5667 19.7157 19.6345C19.0617 19.8263 18.5203 20.1617 18.224 20.7254C17.1022 22.8607 17.7303 26.2738 17.9441 28.5418C17.9851 28.9776 18.1754 33.1038 19.3673 32.2031C19.4417 32.3876 19.6091 32.5352 19.877 32.5454C23.8283 32.6954 27.7717 32.4759 31.6889 31.9517C32.0243 31.9069 32.2613 31.5167 32.2596 31.2098C32.2504 29.4532 32.1674 27.7032 32.0055 25.9534ZM29.8488 21.8159C29.8373 22.3459 29.9036 22.8866 29.9958 23.4294C29.9641 23.3967 29.9312 23.364 29.9006 23.3319C29.3231 22.7235 28.7368 22.1392 28.0925 21.6069C28.6846 21.7133 29.2973 21.8036 29.8488 21.8159ZM27.3894 21.4741C27.3725 21.5443 27.3836 21.6192 27.4484 21.6751C28.1144 22.2494 28.7284 22.8753 29.3157 23.5275C29.6433 23.8912 29.9298 24.3282 30.2425 24.7329C30.3073 25.0703 30.3676 25.4057 30.4105 25.7376C29.8587 25.2479 29.3458 24.713 28.8322 24.1853C27.8852 23.2129 26.9856 22.1916 26.0251 21.2318C26.3831 21.2728 26.8626 21.3703 27.3894 21.4741ZM25.4639 21.1655C26.6937 22.4636 27.7723 23.8951 28.9432 25.2439C29.2699 25.6201 29.8676 26.4551 30.5145 26.909C30.5488 27.3281 30.5906 27.7469 30.6132 28.1669C28.4992 25.695 26.0872 23.468 23.9526 20.9925C24.5449 21.0511 25.0775 21.1179 25.4639 21.1655ZM22.1 31.2882C21.8655 31.1863 21.6597 30.9521 21.4889 30.7842C20.9465 30.2509 20.4569 29.6591 19.9631 29.082C19.9182 29.0296 19.8491 29.0392 19.8014 29.075C19.6934 28.956 19.6286 28.8443 19.6279 28.6577C19.6279 28.6454 19.6084 28.6454 19.6086 28.6577C19.6095 28.8667 19.668 28.9637 19.7894 29.0917C19.7528 29.1288 19.7328 29.1808 19.7701 29.2293C20.3165 29.9427 20.8743 30.6484 21.4716 31.3211C20.9398 31.3494 20.408 31.3799 19.8764 31.4052C19.8048 31.4087 19.7465 31.4289 19.6888 31.4497C19.8033 30.3957 19.3836 28.6584 19.3418 28.0592C19.3058 27.5438 19.2635 27.0122 19.229 26.4729C20.0412 27.6617 21.1242 28.7091 22.1254 29.7019C22.4363 30.0099 23.0238 30.6989 23.6517 31.191C23.1344 31.225 22.6175 31.259 22.1 31.2882ZM24.9381 31.1014C22.7554 29.653 20.5168 27.6384 19.1759 25.393C19.1588 24.8993 19.1625 24.4055 19.1818 23.9151C20.3644 25.1204 21.4867 26.3866 22.6084 27.6448C23.5534 28.7049 24.48 30.0562 25.5896 31.0467C25.3724 31.0634 25.1556 31.0854 24.9381 31.1014ZM26.578 30.9631C25.6991 29.7173 24.4404 28.6382 23.4101 27.5381C22.0539 26.0912 20.6826 24.6553 19.2143 23.3188C19.2642 22.7186 19.3526 22.1286 19.5063 21.5626C20.9606 23.315 22.5165 24.9998 24.0324 26.6926C24.9503 27.7177 25.8729 28.7388 26.8128 29.7443C27.1297 30.0832 27.5449 30.642 28.0509 30.725C28.3078 30.7671 28.5905 30.4436 28.3375 30.2381C26.8548 29.0338 25.5295 27.2956 24.2015 25.9094C22.7157 24.358 21.2526 22.7851 19.7749 21.2265C19.9542 21.1053 20.2191 21.0237 20.5305 20.9679C22.0439 23.0301 23.7767 24.961 25.4786 26.8552C26.3104 27.7809 27.7181 29.7357 29.173 30.7109C28.3089 30.8038 27.4439 30.8891 26.578 30.9631ZM30.6795 30.5386C28.7748 29.3939 27.1731 27.4977 25.6523 25.941C24.0688 24.3199 22.5072 22.6493 21.0588 20.899C21.7198 20.8466 22.5107 20.8755 23.2684 20.9331C24.2708 22.2568 25.3578 23.5183 26.4501 24.7689C27.6771 26.1739 28.9625 27.9134 30.5807 28.8739C30.603 28.8871 30.6243 28.8922 30.6459 28.8987C30.668 29.4447 30.685 29.991 30.6936 30.5375C30.6889 30.5375 30.6843 30.5379 30.6795 30.5386Z" fill="#D31900"/>
</svg>
